<svg width="18" height="21" viewBox="0 0 18 21" fill="none" xmlns="http://www.w3.org/2000/svg">
<path fill-rule="evenodd" clip-rule="evenodd" d="M14.5756 6.32271C14.5756 9.33727 12.1318 11.781 9.11722 11.781C6.10266 11.781 3.65888 9.33727 3.65888 6.32271C3.65888 3.30816 6.10266 0.86438 9.11722 0.86438C12.1318 0.86438 14.5756 3.30816 14.5756 6.32271ZM12.677 6.32271C12.677 8.28873 11.0832 9.88249 9.11722 9.88249C7.1512 9.88249 5.55743 8.28873 5.55743 6.32271C5.55743 4.3567 7.1512 2.76293 9.11722 2.76293C11.0832 2.76293 12.677 4.3567 12.677 6.32271Z" fill="white"/>
<path d="M0.490545 19.5867C0.419419 19.8198 0.549376 20.0635 0.778326 20.1468L1.66417 20.4692C1.93306 20.5671 2.22567 20.4058 2.30959 20.1323C3.20278 17.2205 5.91276 15.1035 9.1172 15.1035C12.3216 15.1035 15.0317 17.2205 15.9249 20.1323C16.0088 20.4058 16.3014 20.5671 16.5703 20.4692L17.4561 20.1468C17.6851 20.0635 17.815 19.8198 17.7439 19.5867C16.6163 15.8923 13.1806 13.205 9.1172 13.205C5.05384 13.205 1.61815 15.8923 0.490545 19.5867Z" fill="white"/>
</svg>
