<svg width="21" height="21" viewBox="0 0 21 21" fill="none" xmlns="http://www.w3.org/2000/svg">
<rect x="1.41741" y="1.32903" width="19.0231" height="19.0231" rx="9.51154" stroke="white" stroke-width="1.119"/>
<path d="M11.0284 4.96533C11.2361 4.96533 11.4354 5.05179 11.5823 5.20568C11.7293 5.35957 11.8118 5.5683 11.8118 5.78594V9.88895H15.729C15.9368 9.88895 16.1361 9.97541 16.283 10.1293C16.4299 10.2832 16.5125 10.4919 16.5125 10.7096C16.5125 10.9272 16.4299 11.1359 16.283 11.2898C16.1361 11.4437 15.9368 11.5302 15.729 11.5302H11.8118V15.6332C11.8118 15.8508 11.7293 16.0595 11.5823 16.2134C11.4354 16.3673 11.2361 16.4538 11.0284 16.4538C10.8206 16.4538 10.6213 16.3673 10.4744 16.2134C10.3275 16.0595 10.2449 15.8508 10.2449 15.6332V11.5302H6.32769C6.11991 11.5302 5.92064 11.4437 5.77372 11.2898C5.62679 11.1359 5.54425 10.9272 5.54425 10.7096C5.54425 10.4919 5.62679 10.2832 5.77372 10.1293C5.92064 9.97541 6.11991 9.88895 6.32769 9.88895H10.2449V5.78594C10.2449 5.5683 10.3275 5.35957 10.4744 5.20568C10.6213 5.05179 10.8206 4.96533 11.0284 4.96533Z" fill="white"/>
</svg>
