<svg width="23" height="21" viewBox="0 0 23 21" fill="none" xmlns="http://www.w3.org/2000/svg">
<path fill-rule="evenodd" clip-rule="evenodd" d="M12.3859 0.91465C12.1218 0.694629 11.7383 0.694627 11.4743 0.91465L1.24205 9.44153C0.559978 10.0099 0.961904 11.1201 1.84976 11.1201H3.40975L3.7942 18.8091C3.84472 19.8195 4.67869 20.6128 5.69038 20.6128H10.2689C10.6621 20.6128 10.9808 20.2941 10.9808 19.9009V13.9679C10.9808 13.7058 11.1933 13.4932 11.4555 13.4932H12.4047C12.6669 13.4932 12.8794 13.7058 12.8794 13.9679V19.9009C12.8794 20.2941 13.1981 20.6128 13.5913 20.6128H18.1698C19.1815 20.6128 20.0155 19.8195 20.066 18.8091L20.4504 11.1201H22.0104C22.8983 11.1201 23.3002 10.0099 22.6181 9.44153L12.3859 0.91465Z" fill="white"/>
</svg>
