<svg width="25" height="25" viewBox="0 0 25 25" fill="none" xmlns="http://www.w3.org/2000/svg">
<path d="M19.5 3.63257H5.5C4.39543 3.63257 3.5 4.528 3.5 5.63257V19.6326C3.5 20.7371 4.39543 21.6326 5.5 21.6326H19.5C20.6046 21.6326 21.5 20.7371 21.5 19.6326V5.63257C21.5 4.528 20.6046 3.63257 19.5 3.63257Z" stroke="white" stroke-width="1.5" stroke-linecap="round" stroke-linejoin="round"/>
<path d="M9.5 11.6326C10.6046 11.6326 11.5 10.7371 11.5 9.63257C11.5 8.528 10.6046 7.63257 9.5 7.63257C8.39543 7.63257 7.5 8.528 7.5 9.63257C7.5 10.7371 8.39543 11.6326 9.5 11.6326Z" stroke="white" stroke-width="1.5" stroke-linecap="round" stroke-linejoin="round"/>
<path d="M21.5 15.6325L18.414 12.5465C18.0389 12.1716 17.5303 11.9609 17 11.9609C16.4697 11.9609 15.9611 12.1716 15.586 12.5465L6.5 21.6325" stroke="white" stroke-width="1.5" stroke-linecap="round" stroke-linejoin="round"/>
</svg>
