<svg width="34" height="34" viewBox="0 0 34 34" fill="none" xmlns="http://www.w3.org/2000/svg">
<g clip-path="url(#clip0_2_92)">
<path d="M15.2428 7.01774C14.7906 7.29496 14.467 7.74047 14.3433 8.25626C14.2195 8.77206 14.3057 9.31589 14.583 9.76812L17.7187 14.8835C17.9959 15.3357 18.4414 15.6593 18.9572 15.7831C19.473 15.9068 20.0168 15.8206 20.4691 15.5434C20.6952 15.4048 20.9671 15.3617 21.225 15.4235C21.4829 15.4854 21.7057 15.6472 21.8443 15.8733L22.3669 16.7259C22.6441 17.1781 22.7303 17.7219 22.6066 18.2377C22.4828 18.7535 22.1592 19.199 21.707 19.4763C21.4809 19.6149 21.3191 19.8376 21.2572 20.0955C21.1953 20.3534 21.2385 20.6253 21.3771 20.8514L22.4223 22.5566C22.5609 22.7827 22.7837 22.9445 23.0416 23.0064C23.2995 23.0682 23.5714 23.0251 23.7975 22.8865C25.1542 22.0549 26.1249 20.7183 26.4962 19.171C26.8674 17.6236 26.6088 15.9921 25.7771 14.6354L20.5509 6.10976C20.2737 5.65753 19.8282 5.33395 19.3124 5.21019C18.7966 5.08644 18.2528 5.17266 17.8005 5.44987L15.2428 7.01774Z" stroke="white" stroke-width="1.5" stroke-linecap="round" stroke-linejoin="round"/>
<path d="M5.86461 12.7665C5.41238 13.0437 5.0888 13.4892 4.96505 14.005C4.8413 14.5208 4.92751 15.0647 5.20473 15.5169L8.34047 20.6323C8.61768 21.0845 9.06319 21.4081 9.57899 21.5318C10.0948 21.6556 10.6386 21.5694 11.0908 21.2922C11.317 21.1536 11.5889 21.1104 11.8468 21.1723C12.1047 21.2342 12.3274 21.396 12.466 21.6221L12.9887 22.4747C13.2659 22.9269 13.3521 23.4707 13.2283 23.9865C13.1046 24.5023 12.781 24.9478 12.3288 25.225C12.1027 25.3636 11.9409 25.5864 11.879 25.8443C11.8171 26.1022 11.8602 26.3741 11.9988 26.6002L13.0441 28.3054C13.1827 28.5315 13.4054 28.6933 13.6633 28.7551C13.9212 28.817 14.1931 28.7739 14.4193 28.6353C15.7759 27.8036 16.7467 26.4671 17.1179 24.9197C17.4892 23.3723 17.2306 21.7409 16.3989 20.3842L11.1727 11.8585C10.8955 11.4063 10.45 11.0827 9.93416 10.959C9.41836 10.8352 8.87453 10.9214 8.4223 11.1987L5.86461 12.7665Z" stroke="white" stroke-width="1.5" stroke-linecap="round" stroke-linejoin="round"/>
</g>
<defs>
<clipPath id="clip0_2_92">
<rect width="24" height="24" fill="white" transform="translate(0.0339355 12.822) rotate(-31.5084)"/>
</clipPath>
</defs>
</svg>
