<svg width="25" height="25" viewBox="0 0 25 25" fill="none" xmlns="http://www.w3.org/2000/svg">
<path d="M6.34601 3.08154L6.87634 2.55121C6.58345 2.25832 6.10857 2.25832 5.81568 2.55121L6.34601 3.08154ZM3.31568 5.05121C3.02279 5.3441 3.02279 5.81898 3.31568 6.11187C3.60857 6.40476 4.08345 6.40476 4.37634 6.11187L3.31568 5.05121ZM8.31568 6.11187C8.60857 6.40476 9.08345 6.40476 9.37634 6.11187C9.66923 5.81898 9.66923 5.3441 9.37634 5.05121L8.31568 6.11187ZM5.81568 2.55121L3.31568 5.05121L4.37634 6.11187L6.87634 3.61187L5.81568 2.55121ZM9.37634 5.05121L6.87634 2.55121L5.81568 3.61187L8.31568 6.11187L9.37634 5.05121Z" fill="white"/>
<path d="M19.3461 21.0815L18.8157 21.6118C19.1086 21.9047 19.5835 21.9047 19.8764 21.6118L19.3461 21.0815ZM17.3763 18.0512C17.0834 17.7583 16.6086 17.7583 16.3157 18.0512C16.0228 18.3441 16.0228 18.8189 16.3157 19.1118L17.3763 18.0512ZM22.3763 19.1118C22.6692 18.8189 22.6692 18.3441 22.3763 18.0512C22.0834 17.7583 21.6086 17.7583 21.3157 18.0512L22.3763 19.1118ZM19.8764 20.5512L17.3763 18.0512L16.3157 19.1118L18.8157 21.6118L19.8764 20.5512ZM21.3157 18.0512L18.8157 20.5512L19.8764 21.6118L22.3763 19.1118L21.3157 18.0512Z" fill="white"/>
<path d="M6.34601 3.58154V19.0815C6.34601 20.1861 7.24144 21.0815 8.34601 21.0815H12.846" stroke="white" stroke-width="1.5" stroke-linecap="round" stroke-linejoin="round"/>
<path d="M13.846 3.08154H17.346C18.4506 3.08154 19.346 3.97697 19.346 5.08154V20.5815" stroke="white" stroke-width="1.5" stroke-linecap="round" stroke-linejoin="round"/>
</svg>
