<svg width="20" height="21" viewBox="0 0 20 21" fill="none" xmlns="http://www.w3.org/2000/svg">
<path fill-rule="evenodd" clip-rule="evenodd" d="M14.1437 16.174C12.7184 17.2396 10.9494 17.8709 9.03274 17.8709C4.3144 17.8709 0.489258 14.0457 0.489258 9.32741C0.489258 4.60908 4.3144 0.783936 9.03274 0.783936C13.7511 0.783936 17.5762 4.60908 17.5762 9.32741C17.5762 11.445 16.8059 13.3827 15.53 14.8754L19.7515 19.0969C19.9369 19.2823 19.9369 19.5829 19.7515 19.7681L19.0803 20.4395C18.8949 20.6249 18.5943 20.6249 18.4091 20.4395L14.1437 16.174ZM15.6777 9.32741C15.6777 12.9973 12.7026 15.9723 9.03274 15.9723C5.36287 15.9723 2.38781 12.9973 2.38781 9.32741C2.38781 5.65755 5.36287 2.68249 9.03274 2.68249C12.7026 2.68249 15.6777 5.65755 15.6777 9.32741Z" fill="white"/>
</svg>
