<svg width="20" height="21" viewBox="0 0 20 21" fill="none" xmlns="http://www.w3.org/2000/svg">
<g opacity="0.7">
<path d="M12.1133 18.4211C12.145 18.5 12.2 18.5674 12.271 18.6141C12.3421 18.6608 12.4257 18.6847 12.5107 18.6825C12.5957 18.6803 12.678 18.6522 12.7465 18.6019C12.815 18.5516 12.8666 18.4815 12.8941 18.4011L18.3108 2.56779C18.3375 2.49395 18.3426 2.41404 18.3255 2.33741C18.3084 2.26079 18.2698 2.19061 18.2143 2.1351C18.1588 2.07959 18.0886 2.04103 18.012 2.02395C17.9354 2.00686 17.8555 2.01195 17.7816 2.03862L1.94831 7.45529C1.86789 7.48287 1.79783 7.53438 1.74754 7.60293C1.69725 7.67147 1.66912 7.75376 1.66695 7.83875C1.66477 7.92374 1.68864 8.00736 1.73536 8.07839C1.78208 8.14942 1.84941 8.20446 1.92831 8.23612L8.53665 10.8861C8.74555 10.9698 8.93536 11.0948 9.09462 11.2538C9.25388 11.4128 9.3793 11.6024 9.46331 11.8111L12.1133 18.4211Z" stroke="white" stroke-width="1.5" stroke-linecap="round" stroke-linejoin="round"/>
<path d="M18.2116 2.13867L9.09497 11.2545" stroke="white" stroke-width="1.5" stroke-linecap="round" stroke-linejoin="round"/>
</g>
</svg>
