<svg width="21" height="21" viewBox="0 0 21 21" fill="none" xmlns="http://www.w3.org/2000/svg">
<g clip-path="url(#clip0_1_524)">
<path fill-rule="evenodd" clip-rule="evenodd" d="M11.1757 2.35702C9.96856 2.35208 8.98634 3.22942 8.98189 4.31662L8.9775 5.3887L7.15905 5.38126L7.16344 4.30917C7.17159 2.31747 8.97096 0.710228 11.1824 0.719284C13.3939 0.72834 15.1801 2.35027 15.1719 4.34197L15.1675 5.41405L13.3491 5.4066L13.3534 4.33452C13.3579 3.24732 12.3829 2.36196 11.1757 2.35702ZM16.5358 7.05748L5.30036 7.01147C4.66018 7.00885 4.12851 7.45497 4.08622 8.03023L3.57997 14.9167C3.4183 17.1161 5.35066 18.9838 7.79815 18.9938L13.9399 19.019C16.3874 19.029 18.335 17.1772 18.1914 14.9766L17.7415 8.08615C17.704 7.51056 17.176 7.0601 16.5358 7.05748ZM5.30706 5.37374C3.70663 5.36718 2.37745 6.48248 2.27172 7.92064L1.76548 14.8072C1.53451 17.9491 4.29503 20.6173 7.79145 20.6316L13.9332 20.6567C17.4297 20.671 20.2119 18.0256 20.0067 14.8819L19.5569 7.99143C19.4629 6.55245 18.1429 5.4263 16.5425 5.41975L5.30706 5.37374ZM13.3338 9.05162C13.3293 10.1388 12.3471 11.0162 11.14 11.0112C9.93278 11.0063 8.95778 10.1209 8.96224 9.03372L8.96311 8.81931C8.96497 8.36706 8.55939 7.99877 8.05724 7.99671C7.55509 7.99466 7.14651 8.35961 7.14466 8.81186L7.14378 9.02628C7.13562 11.018 8.92177 12.6399 11.1332 12.649C13.3447 12.658 15.1441 11.0508 15.1523 9.05907L15.1531 8.84465C15.155 8.39241 14.7494 8.02412 14.2473 8.02206C13.7451 8.02001 13.3365 8.38496 13.3347 8.83721L13.3338 9.05162Z" fill="white"/>
</g>
<defs>
<clipPath id="clip0_1_524">
<rect width="19.926" height="19.926" fill="white" transform="translate(0.981018 0.67749) rotate(0.234632)"/>
</clipPath>
</defs>
</svg>
